<svg id="Layer_1" enable-background="new 0 0 512 512" height="512" viewBox="0 0 512 512" width="512" xmlns="http://www.w3.org/2000/svg"><g><path d="m462.929 292.048-22.98-58.648c-4.313-11.007-7.233-22.593-8.679-34.437-.311-2.542-.695-5.088-1.113-7.614 12.303-14.328 12.087-36.062-.726-50.114-4.639-5.089-10.478-8.776-16.988-10.748l19.889-19.888c5.39-5.39 5.39-14.16-.001-19.55l-17.804-17.804c-2.93-2.929-7.678-2.929-10.607 0s-2.929 7.678.001 10.606l16.973 16.973-20.489 20.489c-3.538 3.539-4.894 8.736-3.535 13.564 1.343 4.775 5.159 8.462 9.961 9.623 4.43 1.07 8.412 3.436 11.518 6.842 7.924 8.691 7.865 22.254-.134 30.878-4.274 4.608-10.077 7.211-16.34 7.329-6.26.123-12.16-2.258-16.591-6.688-2.949-2.951-5.032-6.635-6.023-10.656-1.201-4.871-4.939-8.731-9.757-10.074-4.855-1.354-9.884-.031-13.456 3.539l-20.49 20.491-19.058-19.058c5.93-1.798 11.345-5.042 15.757-9.456 7.34-7.34 11.274-17.099 11.079-27.479-.194-10.375-4.501-19.983-12.125-27.055-14.296-13.26-36.779-13.356-51.186-.221-5.088 4.639-8.774 10.477-10.748 16.988l-19.057-19.056 85.337-85.337 43.335 43.335c2.93 2.929 7.678 2.929 10.607 0s2.929-7.678 0-10.606l-44.168-44.167c-2.611-2.611-6.083-4.049-9.775-4.049s-7.164 1.438-9.775 4.049l-39.435 39.435c-12.004-2.331-24.326-3.459-36.654-3.328-54.679.582-105.408 25.538-139.611 68.546h-48.426c-7.623 0-13.824 6.202-13.824 13.824v123.036c0 2.284.566 4.436 1.551 6.336-.982 1.894-1.551 4.034-1.551 6.312v46.999c0 4.142 3.357 7.5 7.5 7.5s7.5-3.358 7.5-7.5v-45.823h28.976c5.005 0 9.638-2.717 12.092-7.091 2.427-4.327 2.335-9.633-.24-13.848-2.375-3.888-3.519-8.377-3.306-12.982.542-11.749 10.175-21.299 21.93-21.74 6.285-.229 12.225 2.027 16.735 6.372 4.516 4.349 7.002 10.195 7.002 16.461 0 4.171-1.132 8.25-3.273 11.793-2.597 4.294-2.683 9.667-.226 14.023 2.476 4.39 6.968 7.011 12.017 7.011h28.979v26.952c-5.465-2.921-11.587-4.456-17.828-4.456-10.38 0-20.063 4.118-27.265 11.595-7.198 7.475-10.948 17.314-10.559 27.707.732 19.484 16.562 35.451 36.038 36.35 6.878.315 13.614-1.204 19.613-4.414v26.95h-120.685v-39.466c0-4.142-3.357-7.5-7.5-7.5s-7.5 3.358-7.5 7.5v40.642c0 7.623 6.201 13.824 13.824 13.824h93.169v109.431c0 4.142 3.357 7.5 7.5 7.5s7.5-3.358 7.5-7.5v-109.43h14.867c2.279 0 4.426-.564 6.324-1.545 1.896.983 4.044 1.545 6.325 1.545h59.919c4.143 0 7.5-3.358 7.5-7.5s-3.357-7.5-7.5-7.5h-58.743v-28.975c0-5.004-2.717-9.638-7.091-12.091-4.325-2.426-9.632-2.335-13.849.239-3.889 2.376-8.374 3.527-12.981 3.306-11.749-.542-21.299-10.175-21.74-21.929-.236-6.282 2.027-12.226 6.372-16.738 4.349-4.515 10.194-7.001 16.461-7.001 4.171 0 8.25 1.132 11.795 3.275 4.294 2.595 9.667 2.68 14.023.224 4.39-2.476 7.01-6.968 7.01-12.016v-28.979h26.951c-2.92 5.463-4.455 11.586-4.455 17.828 0 10.38 4.118 20.063 11.596 27.265 7.475 7.199 17.312 10.956 27.706 10.558 19.483-.732 35.45-16.562 36.35-36.038.317-6.879-1.204-13.614-4.413-19.612h26.95v120.684h-26.546c-4.143 0-7.5 3.358-7.5 7.5s3.357 7.5 7.5 7.5h27.722c7.623 0 13.824-6.201 13.824-13.824v-123.036c0-7.623-6.201-13.824-13.824-13.824h-30.151c-5.005 0-9.639 2.717-12.092 7.092-2.427 4.327-2.335 9.633.24 13.847 2.375 3.888 3.519 8.377 3.306 12.982-.542 11.749-10.175 21.298-21.929 21.74-6.256.238-12.225-2.027-16.737-6.372-4.515-4.349-7.001-10.194-7.001-16.461 0-4.173 1.132-8.251 3.273-11.793 2.596-4.294 2.683-9.667.226-14.023-2.476-4.39-6.968-7.011-12.017-7.011h-28.979v-26.952c5.464 2.92 11.587 4.456 17.828 4.456 10.38 0 20.063-4.118 27.265-11.596 7.198-7.475 10.948-17.314 10.558-27.706-.731-19.484-16.562-35.451-36.037-36.35-6.869-.312-13.613 1.204-19.613 4.414v-28.126c0-7.623-6.201-13.824-13.824-13.824h-54.902c31.019-33.715 74.022-53.057 120.062-53.547 7.85-.081 15.687.394 23.425 1.398l-34.498 34.495c-5.39 5.39-5.39 14.16 0 19.55l21.32 21.32c3.54 3.54 8.739 4.895 13.564 3.536 4.775-1.343 8.463-5.16 9.622-9.96 1.07-4.43 3.437-8.413 6.842-11.518 8.693-7.924 22.254-7.866 30.879.134 4.608 4.274 7.212 10.077 7.329 16.339.118 6.267-2.258 12.159-6.689 16.591-2.949 2.95-6.633 5.033-10.653 6.024-4.873 1.201-8.733 4.94-10.076 9.758-1.353 4.855-.029 9.884 3.54 13.453l21.322 21.323c5.391 5.39 14.16 5.39 19.551 0l19.89-19.89c1.798 5.929 5.041 11.344 9.455 15.758 7.166 7.167 16.638 11.086 26.743 11.086.244 0 .49-.002.735-.007 5.021-.094 9.858-1.16 14.319-3.089 1.625 12.859 4.817 25.444 9.508 37.416l22.98 58.648c.524 1.338-.103 2.823-1.429 3.379l-27.466 11.539c-3.143 1.32-5 4.594-4.521 7.97l9.152 64.415c.55 3.87-.483 7.688-2.909 10.753s-5.905 4.947-9.798 5.3l-50.539 4.585c-3.863.351-6.822 3.59-6.822 7.469v91.569c0 4.142 3.357 7.5 7.5 7.5s7.5-3.358 7.5-7.5v-84.719l43.717-3.966c8.026-.729 15.201-4.61 20.204-10.929 5.002-6.319 7.132-14.193 5.999-22.173l-8.339-58.687 22.131-9.297c8.896-3.735 13.106-13.698 9.588-22.681zm-272.322-127.279c4.326 2.426 9.632 2.335 13.849-.239 3.89-2.375 8.391-3.521 12.98-3.306h.001c11.749.542 21.299 10.174 21.739 21.929.236 6.282-2.026 12.226-6.371 16.737-4.349 4.515-10.194 7.001-16.461 7.001-4.172 0-8.25-1.132-11.794-3.274-4.296-2.597-9.671-2.682-14.023-.225-4.39 2.476-7.011 6.968-7.011 12.016v28.979h-26.952c2.921-5.465 4.456-11.587 4.456-17.828 0-10.38-4.118-20.063-11.597-27.265-7.474-7.198-17.301-10.946-27.704-10.557-19.484.732-35.451 16.562-36.351 36.038-.317 6.879 1.204 13.614 4.413 19.612h-26.95v-120.685h120.685v28.975c0 5.005 2.717 9.638 7.091 12.092z"/></g></svg>