<svg id="Layer_35" enable-background="new 0 0 64 64" height="512" viewBox="0 0 64 64" width="512" xmlns="http://www.w3.org/2000/svg"><g fill="#f0bc5e"><path d="m5 41h18v18h-18z"/><path d="m55 52h4v4h-4z"/><path d="m34 24h-12v-1c0-6.065 4.935-11 11-11h1z"/></g><path d="m51 47v4h-7.007c9.391-3.924 16.007-13.203 16.007-24 0-14.337-11.663-26-26-26-14.001 0-25.453 11.126-25.981 25h-3.154l7.135 8.562 7.135-8.562h-3.107c.52-9.462 8.382-17 17.972-17 9.925 0 18 8.075 18 18s-8.075 18-18 18h-7v-8h-26v26h26v-6h24v4h12v-14zm-17 0c11.028 0 20-8.972 20-20s-8.972-20-20-20-20 8.972-20 20v1h.865l-2.865 3.438-2.865-3.438h.865v-1c0-13.233 10.767-24 24-24s24 10.767 24 24-10.767 24-24 24h-7v-4zm-9 14h-22v-22h22zm2-6v-2h24v2zm34 4h-8v-10h8z"/><path d="m55 51h4v2h-4z"/><path d="m55 55h4v2h-4z"/><path d="m5 41h2v2h-2z"/><path d="m9 41h2v2h-2z"/><path d="m13 41h10v2h-10z"/><path d="m5 45h18v2h-18z"/><path d="m5 49h18v2h-18z"/><path d="m5 53h18v2h-18z"/><path d="m21 57h2v2h-2z"/><path d="m17 57h2v2h-2z"/><path d="m5 57h10v2h-10z"/><path d="m37 38c6.065 0 11-4.935 11-11s-4.935-11-11-11h-1v10h-10v1c0 6.065 4.935 11 11 11zm8.939-12h-7.939v-7.944c4.165.462 7.476 3.779 7.939 7.944zm-8.939 2h1 7.941c-.499 4.493-4.316 8-8.941 8s-8.445-3.506-8.944-8z"/><path d="m32 30h2v2h-2z"/><path d="m36 30h2v2h-2z"/><path d="m40 30h2v2h-2z"/></svg>